<svg width="21" height="23" viewBox="0 0 21 23" fill="none" xmlns="http://www.w3.org/2000/svg">
<path fill-rule="evenodd" clip-rule="evenodd" d="M2.1 0.388428H18.9C20.0598 0.388428 21 1.36606 21 2.57203V20.0409C21 21.2468 20.0598 22.2245 18.9 22.2245H2.1C0.940202 22.2245 0 21.2468 0 20.0409V2.57203C0 1.36606 0.940202 0.388428 2.1 0.388428ZM2.1 2.57203V20.0409H18.9V2.57203H2.1ZM11.55 11.3112H9.58971V9.12764H11.55V8.03104C11.55 6.22208 12.9603 4.75563 14.7 4.75563H15.75V6.93924H14.7C14.1201 6.93924 13.65 7.42805 13.65 8.03104V9.12764H15.7315V11.3112H13.65V17.8573H11.55V11.3112Z" fill="#541DB9"/>
</svg>
