<svg width="20" height="22" viewBox="0 0 20 22" fill="none" xmlns="http://www.w3.org/2000/svg">
<path fill-rule="evenodd" clip-rule="evenodd" d="M10 0.388428C7.284 0.388428 6.944 0.400209 5.87733 0.450816C4.81267 0.501424 4.08533 0.677495 3.44933 0.934672C2.78267 1.19532 2.178 1.60431 1.678 2.13393C1.16948 2.65323 0.77591 3.28152 0.52467 3.97508C0.27867 4.6364 0.10867 5.39338 0.0599999 6.50044C0.0119999 7.60887 0 7.96171 0 10.7865C0 13.6114 0.0113299 13.9642 0.0599999 15.0734C0.10867 16.1803 0.278 16.9367 0.52533 17.598C0.776 18.2912 1.16933 18.9199 1.67867 19.4398C2.1781 19.9686 2.78234 20.3779 3.44933 20.6391C4.08533 20.8956 4.81267 21.0716 5.87733 21.1223C6.944 21.1729 7.284 21.1846 10 21.1846C12.716 21.1846 13.056 21.1729 14.1227 21.1223C15.1873 21.0716 15.9147 20.8956 16.5507 20.6384C17.2173 20.3778 17.822 19.9688 18.322 19.4391C18.8305 18.9198 19.2241 18.2916 19.4753 17.598C19.722 16.9367 19.8913 16.1803 19.94 15.0734C19.9887 13.9642 20 13.6107 20 10.7865C20 7.96241 19.9887 7.60887 19.94 6.49974C19.8913 5.39269 19.722 4.6364 19.4747 3.97508C19.2236 3.28122 18.83 2.65267 18.3213 2.13323C17.8219 1.60447 17.2177 1.19523 16.5507 0.933985C15.9147 0.678192 15.1867 0.501424 14.122 0.450816C13.056 0.400905 12.7167 0.388428 10 0.388428ZM10 2.26217C12.67 2.26217 12.9867 2.27257 14.0413 2.32248C15.016 2.36892 15.5453 2.53737 15.898 2.68087C16.3647 2.86872 16.698 3.09471 17.048 3.45795C17.398 3.82188 17.6147 4.16848 17.7953 4.65373C17.9327 5.02044 18.0953 5.57085 18.14 6.58432C18.188 7.68096 18.198 8.01024 18.198 10.7865C18.198 13.5628 18.188 13.8921 18.14 14.9887C18.0953 16.0022 17.9333 16.5526 17.7953 16.9193C17.6353 17.371 17.3799 17.7796 17.048 18.1151C16.7254 18.4603 16.3324 18.7259 15.898 18.8922C15.5453 19.035 15.016 19.2041 14.0413 19.2506C12.9867 19.3005 12.6707 19.3109 10 19.3109C7.32933 19.3109 7.01333 19.3005 5.95867 19.2506C4.984 19.2041 4.45467 19.0357 4.102 18.8922C3.66764 18.7258 3.27467 18.4602 2.952 18.1151C2.62012 17.7796 2.36475 17.3709 2.20467 16.9193C2.06733 16.5526 1.90467 16.0022 1.86 14.9887C1.812 13.8921 1.802 13.5628 1.802 10.7865C1.802 8.01024 1.812 7.68096 1.86 6.58432C1.90467 5.57085 2.06667 5.02044 2.20467 4.65373C2.38533 4.16848 2.60267 3.82188 2.952 3.45795C3.27463 3.11276 3.66761 2.84722 4.102 2.68087C4.45467 2.53806 4.984 2.36892 5.95867 2.32248C7.01333 2.27257 7.33 2.26217 10 2.26217Z" fill="#541DB9"/>
<path fill-rule="evenodd" clip-rule="evenodd" d="M10.0003 14.2559C9.56213 14.2559 9.12833 14.1661 8.72343 13.9918C8.31863 13.8174 7.9508 13.5618 7.64097 13.2397C7.33113 12.9174 7.08535 12.535 6.91767 12.1141C6.74998 11.6932 6.66368 11.242 6.66368 10.7863C6.66368 10.3307 6.74998 9.87952 6.91767 9.45861C7.08535 9.03769 7.33113 8.65521 7.64097 8.33303C7.9508 8.01086 8.31863 7.7553 8.72343 7.58094C9.12833 7.40658 9.56213 7.31684 10.0003 7.31684C10.8853 7.31684 11.7339 7.68237 12.3597 8.33303C12.9854 8.98373 13.337 9.86621 13.337 10.7863C13.337 11.7065 12.9854 12.589 12.3597 13.2397C11.7339 13.8903 10.8853 14.2559 10.0003 14.2559ZM10.0003 5.44171C8.63713 5.44171 7.32975 6.0048 6.36582 7.00712C5.40188 8.00943 4.86035 9.36887 4.86035 10.7863C4.86035 12.2038 5.40188 13.5633 6.36582 14.5655C7.32975 15.5679 8.63713 16.131 10.0003 16.131C11.3635 16.131 12.6709 15.5679 13.6348 14.5655C14.5988 13.5633 15.1403 12.2038 15.1403 10.7863C15.1403 9.36887 14.5988 8.00943 13.6348 7.00712C12.6709 6.0048 11.3635 5.44171 10.0003 5.44171ZM16.6356 5.34467C16.6356 5.67973 16.5076 6.00107 16.2798 6.238C16.0519 6.47493 15.7429 6.60804 15.4207 6.60804C15.0984 6.60804 14.7894 6.47493 14.5615 6.238C14.3337 6.00107 14.2056 5.67973 14.2056 5.34467C14.2056 5.0096 14.3337 4.68826 14.5615 4.45133C14.7894 4.2144 15.0984 4.0813 15.4207 4.0813C15.7429 4.0813 16.0519 4.2144 16.2798 4.45133C16.5076 4.68826 16.6356 5.0096 16.6356 5.34467Z" fill="#541DB9"/>
</svg>
