<svg width="26" height="22" viewBox="0 0 26 22" fill="none" xmlns="http://www.w3.org/2000/svg">
<path d="M25.9491 2.90475C24.9904 3.31946 23.9667 3.60197 22.8888 3.73097C23.9872 3.07959 24.8322 2.05294 25.2319 0.828006C24.2017 1.41969 23.06 1.85039 21.8445 2.09026C20.8739 1.06788 19.4905 0.428223 17.9544 0.428223C15.0111 0.428223 12.6246 2.77682 12.6246 5.67019C12.6246 6.08596 12.6734 6.48575 12.7622 6.86847C8.33157 6.66272 4.40465 4.56892 1.77659 1.4037C1.31403 2.17341 1.05512 3.06786 1.05512 4.04227C1.05512 5.86528 1.99758 7.46762 3.42536 8.40897C2.55114 8.38126 1.72893 8.14458 1.01179 7.75226V7.81729C1.01179 10.3599 2.8458 12.4804 5.28645 12.9633C4.83905 13.0816 4.36673 13.1456 3.8825 13.1456C3.54235 13.1456 3.21628 13.1136 2.89021 13.0539C3.57377 15.136 5.53885 16.6541 7.87767 16.6968C6.05775 18.1029 3.75143 18.9409 1.26745 18.9409C0.844965 18.9409 0.423566 18.9164 0 18.8694C2.37132 20.3556 5.16512 21.2244 8.18641 21.2244C17.9945 21.2244 23.3514 13.233 23.3514 6.31411C23.3514 6.09129 23.3514 5.86635 23.3351 5.64247C24.3762 4.90793 25.285 3.97937 26 2.92607L25.9491 2.90475Z" fill="#541DB9"/>
</svg>
