<svg width="29" height="22" viewBox="0 0 29 22" fill="none" xmlns="http://www.w3.org/2000/svg">
<path fill-rule="evenodd" clip-rule="evenodd" d="M25.8473 0.963163C27.0901 1.30551 28.0679 2.3113 28.4034 3.58714C29 5.91556 29 10.7467 29 10.7467C29 10.7467 29 15.5779 28.4034 17.9063C28.2375 18.5347 27.9143 19.1075 27.4658 19.5678C27.0174 20.0282 26.4594 20.36 25.8473 20.5303C23.577 21.1449 14.5 21.1449 14.5 21.1449C14.5 21.1449 5.423 21.1449 3.15271 20.5303C2.54062 20.36 1.98262 20.0282 1.53418 19.5678C1.08574 19.1075 0.762495 18.5347 0.596571 17.9063C0 15.6013 0 10.7467 0 10.7467C0 10.7467 0 5.91556 0.596571 3.58714C0.932143 2.3113 1.91193 1.30551 3.15271 0.963163C5.423 0.348633 14.5 0.348633 14.5 0.348633C14.5 0.348633 23.577 0.348633 25.8473 0.963163ZM19.1359 10.7701L11.5855 15.2356V6.2813L19.1338 10.768L19.1359 10.7701Z" fill="#541DB9"/>
</svg>
