<svg width="40" height="40" viewBox="0 0 40 40" fill="none" xmlns="http://www.w3.org/2000/svg">
<path d="M20.0003 9.99996C22.4726 9.99996 24.8893 10.7331 26.945 12.1066C29.0006 13.4801 30.6027 15.4323 31.5488 17.7164C32.4949 20.0005 32.7425 22.5138 32.2601 24.9386C31.7778 27.3633 30.5873 29.5906 28.8392 31.3388C27.091 33.0869 24.8637 34.2775 22.439 34.7598C20.0142 35.2421 17.5009 34.9945 15.2168 34.0485C12.9327 33.1024 10.9805 31.5002 9.60696 29.4446C8.23344 27.389 7.50033 24.9722 7.50033 22.5C7.50033 19.1848 8.81729 16.0053 11.1615 13.6611C13.5057 11.3169 16.6851 9.99996 20.0003 9.99996ZM20.0003 6.66663C16.8688 6.66663 13.8076 7.59523 11.2038 9.33502C8.60003 11.0748 6.57063 13.5476 5.37224 16.4408C4.17385 19.334 3.8603 22.5175 4.47123 25.5889C5.08216 28.6603 6.59014 31.4815 8.80447 33.6958C11.0188 35.9101 13.84 37.4181 16.9114 38.0291C19.9828 38.64 23.1663 38.3264 26.0595 37.128C28.9526 35.9297 31.4255 33.9003 33.1653 31.2965C34.9051 28.6927 35.8337 25.6315 35.8337 22.5C35.8337 18.3007 34.1655 14.2734 31.1962 11.3041C28.2269 8.33478 24.1996 6.66663 20.0003 6.66663Z" fill="white"/>
<path d="M26.6663 27.5C26.3692 27.5061 26.0777 27.4186 25.833 27.25L18.333 23.4166V15.8333C18.333 15.3913 18.5086 14.9673 18.8212 14.6548C19.1337 14.3422 19.5576 14.1666 19.9997 14.1666C20.4417 14.1666 20.8656 14.3422 21.1782 14.6548C21.4907 14.9673 21.6663 15.3913 21.6663 15.8333V21.5833L27.4997 24.4166C27.692 24.5199 27.8608 24.6618 27.9956 24.8335C28.1305 25.0052 28.2283 25.2028 28.2831 25.4141C28.3379 25.6254 28.3484 25.8457 28.314 26.0613C28.2795 26.2768 28.2009 26.4829 28.083 26.6666C27.9458 26.9219 27.7411 27.1346 27.4913 27.2815C27.2415 27.4285 26.9561 27.504 26.6663 27.5Z" fill="white"/>
<path d="M4.99967 9.99996C4.74205 9.99386 4.48896 9.93094 4.25847 9.8157C4.02798 9.70045 3.82579 9.53573 3.66634 9.33329C3.53502 9.1582 3.43947 8.95895 3.38515 8.74693C3.33083 8.53491 3.31881 8.31426 3.34976 8.09759C3.41227 7.66001 3.64605 7.26518 3.99967 6.99996L10.6663 1.99996C10.8414 1.86864 11.0407 1.77309 11.2527 1.71877C11.4647 1.66445 11.6854 1.65242 11.902 1.68338C12.1187 1.71433 12.3272 1.78766 12.5155 1.89917C12.7038 2.01068 12.8684 2.1582 12.9997 2.33329C13.131 2.50839 13.2265 2.70764 13.2809 2.91966C13.3352 3.13168 13.3472 3.35232 13.3163 3.56899C13.2853 3.78567 13.212 3.99412 13.1005 4.18245C12.989 4.37078 12.8414 4.5353 12.6663 4.66663L5.99967 9.66663C5.7142 9.88869 5.3613 10.0063 4.99967 9.99996Z" fill="white"/>
<path d="M35.0003 9.99997C34.6387 10.0063 34.2858 9.8887 34.0003 9.66663L27.3337 4.66663C27.1586 4.53531 27.011 4.37079 26.8995 4.18246C26.788 3.99412 26.7147 3.78567 26.6837 3.569C26.6528 3.35233 26.6648 3.13169 26.7191 2.91966C26.7735 2.70764 26.869 2.5084 27.0003 2.3333C27.2655 1.97968 27.6604 1.7459 28.098 1.68338C28.5355 1.62087 28.98 1.73475 29.3337 1.99997L36.0003 6.99997C36.3539 7.26518 36.5877 7.66001 36.6502 8.0976C36.7128 8.53518 36.5989 8.97968 36.3337 9.3333C36.1742 9.53574 35.972 9.70046 35.7415 9.8157C35.511 9.93095 35.2579 9.99387 35.0003 9.99997Z" fill="white"/>
</svg>
