<svg width="32" height="32" viewBox="0 0 32 32" fill="none" xmlns="http://www.w3.org/2000/svg">
<g clip-path="url(#clip0_322_136)">
<path d="M16 10.5C12.7 10.5 10 13.2 10 16.5C10 19.8 12.7 22.5 16 22.5C19.3 22.5 22 19.8 22 16.5C22 13.2 19.3 10.5 16 10.5ZM16 20.5C13.8 20.5 12 18.7 12 16.5C12 14.3 13.8 12.5 16 12.5C18.2 12.5 20 14.3 20 16.5C20 18.7 18.2 20.5 16 20.5Z" fill="white"/>
<path d="M16.0006 25.2C12.2756 25.2 8.70059 26.75 6.15059 29.475L5.47559 30.2L6.92559 31.575L7.60059 30.85C9.80059 28.5 12.7756 27.2 16.0006 27.2C19.2256 27.2 22.2006 28.5 24.4006 30.85L25.0756 31.575L26.5256 30.2L25.8506 29.475C23.3006 26.775 19.7256 25.2 16.0006 25.2Z" fill="white"/>
<path d="M24.25 11.975V13.975C26.6 13.975 28.775 14.925 30.4 16.65L31.85 15.275C29.9 13.175 27.125 11.975 24.25 11.975Z" fill="white"/>
<path d="M29.0256 4.99998C29.0256 2.37498 26.8756 0.224976 24.2506 0.224976C21.6256 0.224976 19.4756 2.37498 19.4756 4.99998C19.4756 7.62498 21.6256 9.77497 24.2506 9.77497C26.8756 9.77497 29.0256 7.62498 29.0256 4.99998ZM21.4756 4.99998C21.4756 3.47498 22.7256 2.22498 24.2506 2.22498C25.7756 2.22498 27.0256 3.47498 27.0256 4.99998C27.0256 6.52498 25.7756 7.77498 24.2506 7.77498C22.7256 7.77498 21.4756 6.52498 21.4756 4.99998Z" fill="white"/>
<path d="M7.75039 11.975C4.87539 11.975 2.10039 13.175 0.150391 15.275L1.60039 16.65C3.20039 14.925 5.40039 13.975 7.75039 13.975V11.975Z" fill="white"/>
<path d="M12.5256 4.99998C12.5256 2.37498 10.3756 0.224976 7.75059 0.224976C5.12559 0.224976 2.97559 2.37498 2.97559 4.99998C2.97559 7.62498 5.12559 9.77497 7.75059 9.77497C10.3756 9.77497 12.5256 7.62498 12.5256 4.99998ZM7.75059 7.77498C6.22559 7.77498 4.97559 6.52498 4.97559 4.99998C4.97559 3.47498 6.22559 2.22498 7.75059 2.22498C9.27559 2.22498 10.5256 3.47498 10.5256 4.99998C10.5256 6.52498 9.27559 7.77498 7.75059 7.77498Z" fill="white"/>
</g>
<defs>
<clipPath id="clip0_322_136">
<rect width="32" height="32" fill="white"/>
</clipPath>
</defs>
</svg>
