<svg width="40" height="40" viewBox="0 0 40 40" fill="none" xmlns="http://www.w3.org/2000/svg">
<path d="M33.7894 16.4481L28.0537 8.25653L30.7842 6.3446L36.5199 14.5361L33.7894 16.4481Z" fill="white"/>
<path d="M30.6499 20.681L27.7821 16.5854L14.1295 26.145L16.9973 30.2407L14.2668 32.1527L6.61914 21.2305L9.34964 19.3187L12.2176 23.4145L25.8701 13.8549L23.0023 9.759L25.7328 7.84708L33.3804 18.7692L30.6499 20.681Z" fill="white"/>
<path d="M34.6083 11.8055L37.3388 9.8936L35.4268 7.16308L32.6963 9.075L34.6083 11.8055Z" fill="white"/>
<path d="M11.9458 31.7433L6.20999 23.5517L3.47949 25.4637L9.21526 33.6552L11.9458 31.7433Z" fill="white"/>
<path d="M7.30357 30.9248L4.57305 32.8367L2.66113 30.1062L5.39163 28.1943L7.30357 30.9248Z" fill="white"/>
</svg>
