<svg width="160" height="71" viewBox="0 0 160 71" fill="none" xmlns="http://www.w3.org/2000/svg">
<path d="M7.256 8.272H0.392V0.975999H25.304V8.272H18.44V34H7.256V8.272ZM54.8311 34.768C48.8151 34.768 45.1351 31.984 43.7911 26.416L42.5911 21.472H40.3351V34H29.8231V0.975999H44.3671C47.1191 0.975999 49.5351 1.392 51.6151 2.224C53.7271 3.024 55.3591 4.16 56.5111 5.632C57.6631 7.104 58.2391 8.8 58.2391 10.72C58.2391 12.864 57.7111 14.672 56.6551 16.144C55.6311 17.584 54.0311 18.768 51.8551 19.696C52.0791 20.912 52.3351 22.016 52.6231 23.008C53.0071 24.224 53.5351 25.072 54.2071 25.552C54.8791 26.032 55.8551 26.272 57.1351 26.272C57.5831 26.272 58.2871 26.208 59.2471 26.08V33.904C57.7431 34.48 56.2711 34.768 54.8311 34.768ZM42.1591 14.752C44.5271 14.752 46.1911 14.496 47.1511 13.984C48.1431 13.44 48.6391 12.528 48.6391 11.248C48.6391 10.16 48.2391 9.376 47.4391 8.896C46.6391 8.384 45.3751 8.128 43.6471 8.128H40.3351V14.752H42.1591ZM69.5788 0.975999H84.1708L93.7228 34H82.4428L81.1948 27.664H72.6508L71.2588 34H60.4588L69.5788 0.975999ZM80.0428 21.76L76.9228 7.312L73.6588 21.76H80.0428ZM112.453 34.768C109.253 34.768 106.341 34.016 103.717 32.512C101.125 30.976 99.0613 28.896 97.5253 26.272C96.0213 23.616 95.2693 20.688 95.2693 17.488C95.2693 14.224 96.0053 11.28 97.4773 8.656C98.9493 6.032 100.965 3.984 103.525 2.512C106.085 1.008 108.965 0.256 112.165 0.256C113.893 0.256 115.589 0.463999 117.253 0.879997C118.917 1.296 120.341 1.888 121.525 2.656L120.229 10.096C117.925 9.232 115.845 8.8 113.989 8.8C111.429 8.8 109.461 9.552 108.085 11.056C106.709 12.528 106.021 14.656 106.021 17.44C106.021 20.16 106.741 22.288 108.181 23.824C109.653 25.328 111.685 26.08 114.277 26.08C115.269 26.08 116.197 25.984 117.061 25.792C117.925 25.6 118.981 25.248 120.229 24.736L121.573 32.32C118.789 33.952 115.749 34.768 112.453 34.768ZM125.87 0.975999H137.006V14.464H140.462L146.846 0.975999H157.934V3.136L150.35 17.344L159.038 31.84V34H147.374L140.27 20.896H137.006V34H125.87V0.975999ZM2.12 36.976H14.024C18.952 36.976 22.76 37.936 25.448 39.856C28.168 41.776 29.528 44.464 29.528 47.92C29.528 50.096 28.856 52 27.512 53.632C26.2 55.264 24.392 56.528 22.088 57.424C19.816 58.288 17.288 58.72 14.504 58.72H12.488V70H2.12V36.976ZM14.552 52.048C16.248 52.048 17.56 51.696 18.488 50.992C19.416 50.288 19.88 49.264 19.88 47.92C19.88 46.576 19.416 45.568 18.488 44.896C17.592 44.224 16.28 43.888 14.552 43.888H12.488V51.952C13.128 52.016 13.816 52.048 14.552 52.048ZM37.8913 36.976H52.4833L62.0353 70H50.7553L49.5073 63.664H40.9633L39.5713 70H28.7713L37.8913 36.976ZM48.3553 57.76L45.2353 43.312L41.9713 57.76H48.3553ZM65.2138 36.976H75.5818V62.704H87.0538V70H65.2138V36.976ZM95.4946 70.288C93.7986 70.288 92.4706 69.824 91.5106 68.896C90.5506 67.968 90.0706 66.8 90.0706 65.392C90.0706 63.952 90.5666 62.784 91.5586 61.888C92.5506 60.992 93.8626 60.544 95.4946 60.544C97.0946 60.544 98.3906 61.024 99.3826 61.984C100.375 62.912 100.871 64.048 100.871 65.392C100.871 66.896 100.407 68.096 99.4786 68.992C98.5506 69.856 97.2226 70.288 95.4946 70.288Z" fill="#6F2EE6"/>
</svg>
