<svg width="41" height="41" viewBox="0 0 41 41" fill="none" xmlns="http://www.w3.org/2000/svg">
<path d="M35.2486 10.773C35.2152 10.4496 34.9431 10.2041 34.6184 10.2041H6.38071C6.05608 10.2041 5.78397 10.4496 5.75066 10.773L2.72195 40.3025C2.70401 40.4806 2.76215 40.6581 2.8821 40.791C3.00206 40.9239 3.17271 41 3.35208 41H37.6472C37.8265 41 37.9972 40.9239 38.1172 40.791C38.2372 40.6581 38.2953 40.4806 38.2774 40.3019L35.2486 10.773ZM6.15818 37.834L8.66622 13.3701H32.3325L34.8412 37.834H6.15818Z" fill="white"/>
<path d="M13.2947 16.7803C12.6386 16.7803 12.1074 17.312 12.1074 17.9675C12.1074 18.623 12.6386 19.1548 13.2947 19.1548C13.9508 19.1548 14.4819 18.623 14.4819 17.9675C14.4819 17.3121 13.9508 16.7803 13.2947 16.7803Z" fill="white"/>
<path d="M27.7038 16.7803C27.0478 16.7803 26.5166 17.312 26.5166 17.9675C26.5166 18.623 27.0478 19.1548 27.7038 19.1548C28.3599 19.1548 28.8911 18.623 28.8911 17.9675C28.8911 17.3121 28.3599 16.7803 27.7038 16.7803Z" fill="white"/>
<path d="M16.0216 3.75406C17.1705 2.60638 18.7473 1.90025 20.4991 1.89961C22.2509 1.90025 23.8277 2.60638 24.9766 3.75406C26.1237 4.90302 26.8304 6.47976 26.8311 8.23155H28.7307C28.73 3.68479 25.0459 0.000640625 20.4991 0C15.9523 0.000640625 12.2681 3.68479 12.2676 8.23155H14.1672C14.1678 6.47976 14.8746 4.90294 16.0216 3.75406Z" fill="white"/>
</svg>
